<?xml version="1.0" standalone="no"?>
<!DOCTYPE svg PUBLIC "-//W3C//DTD SVG 20010904//EN"
 "http://www.w3.org/TR/2001/REC-SVG-20010904/DTD/svg10.dtd">
<svg version="1.0" xmlns="http://www.w3.org/2000/svg"
 width="1200.000000pt" height="1202.000000pt" viewBox="0 0 1200.000000 1202.000000"
 preserveAspectRatio="xMidYMid meet">

<g transform="translate(0.000000,1202.000000) scale(0.100000,-0.100000)"
fill="#000000" stroke="none">
<path d="M5060 10695 c-256 -42 -485 -161 -666 -347 -176 -181 -283 -383 -329
-624 -20 -104 -20 -334 0 -438 48 -248 166 -467 348 -643 169 -163 367 -270
595 -320 107 -24 377 -24 485 0 292 65 551 231 732 472 53 70 145 252 174 344
72 225 72 507 0 732 -30 95 -122 275 -179 350 -179 237 -438 403 -725 464
-108 23 -327 28 -435 10z"/>
<path d="M9870 9837 c-143 -41 -240 -134 -300 -287 -12 -30 -28 -68 -35 -85
-8 -16 -53 -122 -101 -235 -47 -113 -124 -295 -170 -405 -47 -110 -91 -213
-98 -230 -8 -16 -49 -113 -91 -215 -43 -102 -85 -203 -95 -225 -10 -22 -48
-112 -85 -200 -37 -88 -80 -189 -95 -225 -15 -36 -58 -137 -95 -225 -37 -88
-75 -178 -85 -200 -10 -22 -34 -80 -55 -130 -20 -49 -45 -108 -55 -130 -10
-22 -29 -67 -43 -100 -14 -33 -51 -121 -82 -195 -155 -366 -164 -396 -145
-502 34 -185 170 -319 355 -350 143 -24 307 49 398 176 11 16 58 115 103 220
45 105 85 191 90 193 5 1 36 -59 68 -135 33 -75 69 -159 82 -187 12 -27 61
-140 109 -250 48 -110 114 -260 146 -334 33 -74 56 -138 52 -142 -5 -5 -194
-10 -420 -11 l-411 -3 -44 -30 c-56 -40 -113 -125 -134 -202 -32 -117 2 -245
88 -339 82 -89 25 -84 902 -84 425 0 775 3 778 6 6 5 -49 145 -122 314 -15 36
-76 182 -135 325 -59 143 -115 278 -125 300 -10 22 -44 103 -75 180 -31 77
-65 158 -75 180 -10 22 -44 103 -75 180 -31 77 -65 158 -75 180 -10 22 -32 74
-48 115 -17 41 -50 122 -75 180 -24 58 -70 166 -101 241 l-57 137 35 78 c18
44 64 151 101 239 37 88 80 189 95 225 15 36 58 137 95 225 37 88 75 178 85
200 10 22 48 112 85 200 131 311 148 351 175 415 15 36 58 137 95 225 37 88
88 207 113 265 25 58 51 128 58 155 51 189 -48 391 -232 477 -76 36 -198 47
-274 25z"/>
<path d="M3405 8549 c-214 -28 -436 -151 -568 -317 -30 -37 -112 -150 -184
-252 -988 -1411 -1455 -2425 -1384 -3010 18 -155 75 -316 152 -430 119 -178
273 -289 516 -369 l122 -41 201 0 c312 0 634 -22 915 -61 734 -104 1214 -347
1419 -721 49 -88 89 -201 118 -328 21 -95 23 -129 23 -355 0 -152 -5 -285 -13
-340 -26 -179 -63 -394 -98 -565 -112 -553 -133 -739 -100 -854 89 -304 468
-403 691 -181 84 85 111 159 135 370 6 55 31 199 55 320 24 121 53 272 65 335
11 63 25 135 30 160 14 66 48 310 59 425 48 487 -1 898 -149 1245 -222 519
-674 904 -1325 1128 -253 87 -611 165 -938 203 l-109 13 4 110 c4 128 12 151
134 401 103 210 195 377 377 680 167 278 424 670 438 670 5 0 29 -47 53 -105
182 -445 402 -697 676 -773 162 -45 478 -70 1095 -87 479 -13 1006 -13 1080 1
115 21 212 95 258 197 33 73 30 198 -6 273 -32 66 -99 132 -165 162 -46 21
-61 22 -687 28 -783 9 -1216 28 -1366 60 -120 26 -234 250 -431 844 -73 219
-91 288 -99 365 -42 420 -355 743 -772 799 -89 12 -122 12 -222 0z"/>
<path d="M6629 5410 c-109 -58 -193 -233 -170 -355 23 -120 91 -222 175 -261
l51 -24 686 0 685 0 52 26 c84 42 147 135 171 255 26 126 -57 302 -170 360
-37 18 -66 19 -741 19 -669 -1 -705 -2 -739 -20z"/>
</g>
</svg>
